<svg width="36" height="36" fill="currentColor" viewBox="0 0 24 24" transform="" id="injected-svg"><!--Boxicons v3.0 https://boxicons.com | License  https://docs.boxicons.com/free--><path d="m22,12.5v-1h-1.03c-.04-.78-.18-1.54-.41-2.26l.95-.37-.36-.93-.95.37c-.38-.85-.89-1.62-1.5-2.3l.73-.73-.71-.71-.73.73c-.57-.51-1.2-.95-1.89-1.3l.42-.93-.91-.41-.42.94c-.84-.32-1.75-.52-2.69-.57v-1.03h-1v1.03c-.78.04-1.54.18-2.26.41l-.37-.95-.93.36.37.95c-.85.38-1.62.89-2.3,1.5l-.73-.73-.71.71.73.73c-.51.57-.95,1.2-1.3,1.89l-.93-.42-.41.91.94.42c-.32.84-.52,1.75-.57,2.69h-1.03v1h1.03c.04.78.18,1.54.41,2.26l-.95.37.36.93.95-.37c.38.85.89,1.62,1.5,2.3l-.73.73.71.71.73-.73c.57.51,1.2.95,1.89,1.3l-.42.93.91.41.42-.94c.84.32,1.75.52,2.69.57v1.03h1v-1.03c.78-.04,1.54-.18,2.26-.41l.37.95.93-.36-.37-.95c.85-.38,1.62-.89,2.3-1.5l.73.73.71-.71-.73-.73c.51-.57.95-1.2,1.3-1.89l.93.42.41-.91-.94-.42c.32-.84.52-1.75.57-2.69h1.03Zm-10-7.5c3.1,0,5.72,2.02,6.65,4.81l-4.05.71c-.52-.91-1.48-1.53-2.6-1.53-.37,0-.72.08-1.05.2l-2.64-3.14c1.07-.67,2.33-1.06,3.68-1.06Zm1,7c0,.55-.45,1-1,1s-1-.45-1-1,.45-1,1-1,1,.45,1,1Zm-4.31,6.17c-2.2-1.18-3.69-3.5-3.69-6.17,0-1.79.68-3.42,1.79-4.66l2.64,3.14c-.26.45-.42.96-.42,1.51,0,.93.43,1.75,1.1,2.3l-1.41,3.86Zm3.31.83c-.49,0-.97-.05-1.43-.15l1.4-3.85s.02,0,.03,0c1.49,0,2.71-1.08,2.95-2.5l4.04-.71c0,.07.01.14.01.22,0,3.86-3.14,7-7,7Z"></path></svg>