<svg xmlns="http://www.w3.org/2000/svg" shape-rendering="geometricPrecision" text-rendering="geometricPrecision" image-rendering="optimizeQuality" fill-rule="evenodd" clip-rule="evenodd" viewBox="0 0 512 512"><path fill-rule="nonzero" d="M256.002 0c70.69 0 134.688 28.658 181.017 74.981C483.343 121.311 512 185.309 512 255.998c0 70.69-28.657 134.694-74.981 181.018C390.693 483.342 326.692 512 256.002 512s-134.694-28.655-181.017-74.984C28.655 390.692 0 326.688 0 255.998c0-70.689 28.658-134.69 74.985-181.017C121.308 28.658 185.312 0 256.002 0zM235.45 162.24v140.716h21.303c7.601 0 12.8-.949 15.602-2.85 2.799-1.898 4.199-6.25 4.199-13.05V162.24h60.006v105.313c0 17.001-1.099 30.703-3.3 41.106-2.199 10.401-6.298 19.2-12.299 26.402-6.001 7.2-14.203 12.2-24.603 15.002-10.404 2.799-23.904 4.202-40.506 4.202-16.603 0-30.055-1.403-40.356-4.202-10.302-2.802-18.453-7.802-24.453-15.002-6.001-7.202-10.101-16.001-12.302-26.402-2.198-10.403-3.298-24.105-3.298-41.106V162.24h60.007zm174.377-60.066C370.462 62.812 316.074 38.46 256.002 38.46c-60.073 0-114.464 24.352-153.825 63.714-39.365 39.364-63.716 93.752-63.716 153.824 0 60.073 24.351 114.464 63.716 153.825 39.361 39.365 93.752 63.717 153.825 63.717 60.072 0 114.46-24.352 153.825-63.717 39.362-39.361 63.713-93.752 63.713-153.825 0-60.072-24.351-114.46-63.713-153.824z"/></svg>